# xmcd
#
# Track frame offsets: 
#        150
#        20053
#        38461
#        62927
#        80136
#        98371
#        113072
#        137115
#
# Disc length: 2110 seconds
#
# Revision: 0
# Processed by: cddbd v1.5.2PL0 Copyright (c) Steve Scherf et al.
# Submitted via: ExactAudioCopyFreeDBPlugin 1.0
#
DISCID=62083c08
DTITLE=Johnny Sansone - Hopeland
DYEAR=2018
DGENRE=Blues
TTITLE0=Johnny Copeland - Derelict Junction
TTITLE1=Johnny Copeland - Delta Coating
TTITLE2=Johnny Copeland - Hopeland
TTITLE3=Johnny Copeland - Plywood Floor
TTITLE4=Johnny Copeland - Johnny Longshot
TTITLE5=Johnny Copeland - Can't Get There From Here
TTITLE6=Johnny Copeland - One Star Joint
TTITLE7=Johnny Copeland - The Rescue
EXTD=
EXTT0=
EXTT1=
EXTT2=
EXTT3=
EXTT4=
EXTT5=
EXTT6=
EXTT7=
PLAYORDER=
